<?xml version="1.0" encoding="UTF-8" standalone="no"?>
<!DOCTYPE svg PUBLIC "-//W3C//DTD SVG 1.1//EN" "http://www.w3.org/Graphics/SVG/1.1/DTD/svg11.dtd">
<svg width="100%" height="100%" viewBox="0 0 320 320" version="1.1" xmlns="http://www.w3.org/2000/svg" xmlns:xlink="http://www.w3.org/1999/xlink" xml:space="preserve" xmlns:serif="http://www.serif.com/" style="fill-rule:evenodd;clip-rule:evenodd;stroke-linejoin:round;stroke-miterlimit:2;">
    <g transform="matrix(1,0,0,1,-900,0)">
        <g id="Artboard3" transform="matrix(0.5,0,0,1,450,0)">
            <rect x="900" y="0" width="640" height="320" style="fill:none;"/>
            <g transform="matrix(2,0,0,1,-900,0)">
                <path d="M1220,80L1220,240C1220,284.153 1184.153,320 1140,320L980,320C935.847,320 900,284.153 900,240L900,80C900,35.847 935.847,0 980,0L1140,0C1184.153,0 1220,35.847 1220,80Z" style="fill:rgb(112,88,182);"/>
            </g>
            <g transform="matrix(13.0311,0,0,6.51555,1027.61535,31.401516)">
                <path d="M15.467,28.275C15.656,28.339 18.918,29.455 18.991,31.048C19.113,33.699 17.597,34.98 15.458,34.96C11.178,34.92 1.23,30.508 0.127,22.153C0.054,21.596 0.005,20.963 0,20.273C1.512,28.789 14.519,28.321 15.467,28.275Z" style="fill:rgb(68,158,255);"/>
                <path d="M15.521,28.272C15.521,28.272 -0.353,28.609 0.254,17.8C0.49,13.588 3.002,10.49 6.273,7.935C5.522,9.124 4.947,11.19 4.762,12.778C4.418,15.745 5.661,19.532 6.058,20.304C6.669,21.493 8.501,25.712 15.521,28.272Z" style="fill:rgb(148,221,165);"/>
                <path d="M19.099,4.518C15.256,5.222 12.363,8.531 12.232,12.487L12.21,12.461C12.21,12.461 11.865,20.65 14.471,26.11C15.035,27.519 15.521,28.272 15.521,28.272C8.605,25.443 6.938,21.156 6.373,19.945C6.006,19.157 4.91,15.325 5.369,12.374C5.672,10.43 6.593,7.786 7.635,6.948C10.374,4.745 15.953,4.477 19.099,4.518Z" style="fill:rgb(253,254,0);"/>
                <path d="M12.767,12.401C13.077,8.051 16.708,4.614 21.136,4.614C25.767,4.614 29.527,8.374 29.527,13.005C29.527,17.636 25.767,21.396 21.136,21.396C20.641,21.396 20.157,21.353 19.685,21.27C14.523,21.352 14.638,26.443 14.638,26.443C12.061,20.887 12.745,12.374 12.745,12.374L12.767,12.401Z" style="fill:rgb(255,75,174);"/>
            </g>
        </g>
    </g>
</svg>
